<?xml version="1.0" encoding="UTF-8" standalone="no"?>
<!DOCTYPE svg PUBLIC "-//W3C//DTD SVG 1.1//EN" "http://www.w3.org/Graphics/SVG/1.1/DTD/svg11.dtd">
<svg version="1.1" xmlns="http://www.w3.org/2000/svg" xmlns:xlink="http://www.w3.org/1999/xlink" preserveAspectRatio="xMidYMid meet" viewBox="0 0 640 640" width="640" height="640"><defs><path d="M134.84 77.28C108.62 77.28 87.36 98.54 87.36 124.76C87.36 150.98 108.62 172.23 134.84 172.23C161.06 172.23 182.32 150.98 182.32 124.76C182.32 98.54 161.06 77.28 134.84 77.28Z" id="asszVRUhF"></path><path d="M154.58 331.68C166.48 313.95 187.19 312.12 200.83 327.59C200.87 327.64 200.92 327.69 200.96 327.74C205.57 333.03 242.47 375.33 247.08 380.62C259.25 394.58 277.44 394.86 289.86 381.29C303.95 365.89 416.68 242.71 430.78 227.31C444.26 212.59 464.29 214.36 476.13 231.31C493.42 256.05 631.79 453.98 649.08 478.72C653.89 485.6 656.84 494.34 657.47 503.6C658.14 513.36 663.47 591.44 664.14 601.2C665.75 624.63 652.43 645.32 634.4 647.41C633.43 647.52 632.46 647.58 631.49 647.58C569.8 647.58 76.29 647.58 14.6 647.58C-3.13 647.58 -17.64 629.26 -18.17 606.23C-18.17 606.23 -18.17 606.23 -18.17 606.23C-18.41 595.49 -15.53 585.02 -10.08 576.92C-10.08 576.92 138.11 356.2 154.58 331.68Z" id="e1qDbyX0QT"></path><path d="M3.33 0L640 0L640 640L3.33 640L3.33 0Z" id="d3NzqQ7Zx"></path></defs><g><g><g><use xlink:href="#asszVRUhF" opacity="1" fill="#ff5252" fill-opacity="1"></use><g><use xlink:href="#asszVRUhF" opacity="1" fill-opacity="0" stroke="#000000" stroke-width="1" stroke-opacity="0"></use></g></g><g><use xlink:href="#e1qDbyX0QT" opacity="1" fill="#4364d1" fill-opacity="1"></use><g><use xlink:href="#e1qDbyX0QT" opacity="1" fill-opacity="0" stroke="#000000" stroke-width="1" stroke-opacity="0"></use></g></g><g><g><use xlink:href="#d3NzqQ7Zx" opacity="1" fill-opacity="0" stroke="#d9dde0" stroke-width="30" stroke-opacity="1"></use></g></g></g></g></svg>